<?xml version="1.0" standalone="no"?>
<!DOCTYPE svg PUBLIC "-//W3C//DTD SVG 20010904//EN"
 "http://www.w3.org/TR/2001/REC-SVG-20010904/DTD/svg10.dtd">
<svg version="1.0" xmlns="http://www.w3.org/2000/svg"
 width="300.000000pt" height="300.000000pt" viewBox="0 0 300.000000 300.000000"
 preserveAspectRatio="xMidYMid meet">
<metadata>
Created by potrace 1.11, written by Peter Selinger 2001-2013
</metadata>
<g transform="translate(0.000000,300.000000) scale(0.100000,-0.100000)"
fill="#000000" stroke="none">
<path d="M1345 2208 c-77 -48 -150 -94 -163 -101 -13 -6 -87 -52 -165 -101
-245 -153 -321 -201 -339 -211 -9 -5 -50 -30 -90 -55 -40 -25 -81 -49 -90 -55
-162 -97 -434 -271 -428 -275 12 -7 974 -5 986 2 10 7 10 115 0 126 -3 3 -112
5 -241 5 -129 -1 -235 1 -235 3 0 4 47 33 450 282 102 63 237 146 300 185 63
39 123 77 132 85 20 16 0 27 278 -145 55 -35 104 -63 108 -63 6 0 7 179 0 185
-8 7 -327 204 -344 212 -16 8 -44 -6 -159 -79z"/>
<path d="M1944 2165 c-3 -6 -3 -85 -2 -175 l3 -164 160 -99 c88 -54 189 -117
224 -138 36 -21 63 -40 60 -40 -2 -1 -123 -2 -269 -3 l-265 -1 0 -70 0 -69
538 -1 c295 0 537 0 537 1 0 1 -64 41 -142 90 -235 144 -672 415 -693 429 -18
11 -20 24 -21 116 -1 57 -2 111 -3 119 -1 12 -14 16 -62 16 -35 0 -63 -5 -65
-11z"/>
<path d="M1340 1774 l0 -64 65 0 65 0 -1 64 -2 64 -63 0 -64 0 0 -64z"/>
<path d="M1510 1774 l0 -64 65 0 64 0 -2 63 -2 62 -62 2 -63 1 0 -64z"/>
<path d="M1339 1655 c0 -8 -1 -33 -1 -55 0 -22 1 -44 1 -50 1 -6 30 -10 66
-10 l65 0 0 65 0 65 -65 0 c-51 0 -65 -3 -66 -15z"/>
<path d="M1510 1605 l0 -65 65 0 64 0 0 65 -1 65 -64 0 -64 0 0 -65z"/>
<path d="M61 1350 c-4 -3 -8 -149 -8 -325 l0 -321 282 1 c253 0 284 2 308 18
16 10 33 30 39 45 15 38 17 455 2 499 -13 36 -59 82 -84 84 -57 4 -533 3 -539
-1z m445 -129 l60 -1 0 -192 -1 -193 -192 -1 -192 -1 -1 193 -1 193 68 3 c38
2 97 2 133 1 36 -1 92 -2 126 -2z"/>
<path d="M901 1343 c-41 -14 -77 -54 -83 -92 -2 -14 -3 -125 -3 -247 1 -316
-14 -302 330 -300 328 2 313 -15 310 329 -2 331 8 320 -304 322 -145 0 -225
-3 -250 -12z m427 -317 l0 -193 -189 0 c-104 0 -190 3 -190 6 -1 3 -2 90 -4
193 l-2 187 61 3 c34 2 120 2 193 0 l131 -3 0 -193z"/>
<path d="M1556 1345 c-8 -23 -3 -115 8 -116 6 -1 58 -3 116 -4 58 -1 110 -3
117 -4 8 -1 11 -68 10 -256 -1 -163 2 -256 8 -258 9 -2 46 -2 100 2 20 1 20 7
20 259 l0 257 128 0 c80 -1 127 3 128 10 2 14 2 87 0 105 -1 14 -40 16 -316
15 -203 0 -316 -3 -319 -10z"/>
<path d="M2320 1352 c-6 -2 -10 -33 -10 -68 l0 -65 125 3 c69 2 126 1 126 -2
1 -3 3 -113 4 -245 1 -132 3 -247 4 -257 1 -13 12 -16 60 -16 52 1 60 3 63 22
2 12 3 128 3 259 l-1 237 128 0 129 0 -3 67 -3 67 -308 1 c-169 0 -312 -1
-317 -3z"/>
</g>
</svg>
